<?xml version="1.0" standalone="no"?>
<!DOCTYPE svg PUBLIC "-//W3C//DTD SVG 20010904//EN"
 "http://www.w3.org/TR/2001/REC-SVG-20010904/DTD/svg10.dtd">
<svg version="1.0" xmlns="http://www.w3.org/2000/svg"
 width="351.12pt" height="198pt" viewBox="0 350 1320 800"
 preserveAspectRatio="xMidYMid meet" style="padding-top: 0; padding-bottom: 0;">
<g transform="translate(0,1000) scale(0.1,-0.1)" fill="#fff" stroke="none">
<path d="M7665 5425 c-27 -7 -80 -16 -117 -20 -77 -7 -70 2 -94 -135 -12 -62
-18 -152 -18 -260 -1 -147 1 -172 22 -230 31 -90 91 -150 213 -219 65 -36 71
-37 67 -12 -2 12 -39 45 -88 79 -107 73 -143 124 -160 224 -15 84 -7 321 13
433 l12 70 86 12 c109 15 139 27 139 53 0 22 -5 23 -75 5z"/>
<path d="M8024 5423 c4 -26 40 -40 138 -54 56 -8 89 -18 93 -27 18 -47 37
-269 32 -382 -7 -193 -32 -240 -176 -339 -77 -53 -110 -91 -77 -91 22 0 140
76 191 122 91 82 122 197 111 403 -5 107 -28 282 -42 327 -3 12 -21 18 -62 23
-31 3 -88 13 -126 20 -86 19 -85 19 -82 -2z"/>
<path d="M4250 5299 c-108 -33 -159 -139 -111 -229 21 -41 73 -73 151 -95 81
-23 117 -41 136 -70 23 -35 4 -80 -40 -94 -61 -20 -156 25 -156 75 0 17 -2 17
-74 3 -51 -11 -56 -14 -50 -33 32 -105 115 -152 256 -144 67 3 91 9 124 30 49
31 74 79 74 141 0 86 -48 126 -223 190 -90 33 -111 59 -84 101 40 61 165 38
189 -36 3 -7 21 -6 61 2 51 12 57 16 51 34 -12 41 -57 89 -102 108 -53 24
-152 32 -202 17z"/>
<path d="M6644 5295 c-22 -9 -56 -31 -74 -50 -29 -30 -34 -43 -37 -92 -7 -99
31 -136 192 -187 91 -29 115 -48 115 -91 0 -46 -29 -68 -86 -67 -50 0 -91 23
-110 61 -17 33 -19 34 -78 20 -60 -13 -65 -22 -42 -67 39 -75 112 -112 221
-112 46 0 90 6 113 16 79 32 120 100 108 176 -13 79 -48 108 -191 159 -100 34
-125 52 -125 84 0 75 148 86 186 14 16 -33 18 -33 80 -18 51 13 56 29 22 79
-49 73 -198 110 -294 75z"/>
<path d="M9575 5301 c-90 -23 -155 -77 -194 -161 -21 -45 -25 -69 -25 -135 1
-126 51 -214 151 -265 42 -22 61 -25 148 -25 84 0 107 4 141 22 99 53 145 129
152 249 8 138 -43 236 -151 290 -54 28 -165 40 -222 25z m150 -120 c74 -34
105 -86 105 -174 -1 -102 -58 -175 -145 -185 -104 -11 -174 32 -201 124 -47
164 94 303 241 235z"/>
<path d="M10897 5296 c-74 -27 -117 -86 -117 -158 0 -83 44 -123 181 -167 99
-33 129 -54 129 -94 0 -46 -28 -70 -84 -71 -48 -1 -92 24 -112 63 -17 33 -19
34 -79 20 -53 -12 -56 -14 -50 -38 14 -55 68 -107 134 -130 53 -17 170 -13
216 8 132 59 141 227 16 290 -20 11 -72 31 -115 45 -118 38 -142 71 -91 121
43 44 137 27 163 -30 10 -22 17 -26 38 -21 15 4 39 10 55 13 35 7 37 28 7 73
-49 72 -198 111 -291 76z"/>
<path d="M1980 5005 l0 -295 60 0 59 0 3 108 3 107 95 5 c115 6 155 25 188 90
52 103 2 242 -97 270 -20 5 -98 10 -173 10 l-138 0 0 -295z m284 174 c21 -17
26 -29 26 -65 0 -68 -22 -84 -115 -84 l-75 0 0 85 0 85 69 0 c54 0 74 -4 95
-21z"/>
<path d="M2620 5005 l0 -295 60 0 60 0 0 130 c0 174 10 175 109 4 41 -69 79
-128 86 -130 7 -3 40 -4 74 -2 l61 3 -86 130 c-48 71 -82 131 -76 133 32 10
79 51 95 82 13 26 17 48 13 83 -7 67 -33 108 -86 135 -39 19 -59 22 -177 22
l-133 0 0 -295z m254 174 c26 -20 35 -61 18 -85 -14 -22 -51 -34 -101 -34
l-51 0 0 70 0 70 54 0 c39 0 60 -6 80 -21z"/>
<path d="M3260 5005 l0 -295 170 0 170 0 0 55 0 55 -110 0 -111 0 3 68 3 67
98 3 97 3 0 49 0 50 -100 0 -101 0 3 68 3 67 108 3 107 3 0 49 0 50 -170 0
-170 0 0 -295z"/>
<path d="M4919 5273 c-57 -149 -199 -542 -199 -551 0 -8 21 -12 58 -12 l58 0
23 65 23 65 118 0 c82 0 121 -4 127 -12 6 -7 18 -37 27 -65 l18 -53 59 0 c32
0 59 4 59 9 0 7 -174 484 -205 564 -6 14 -20 17 -81 17 -72 0 -75 -1 -85 -27z
m125 -198 c19 -55 38 -108 41 -117 6 -16 -1 -18 -79 -18 -47 0 -86 1 -86 3 0
4 51 153 70 205 7 18 14 31 16 30 2 -2 19 -49 38 -103z"/>
<path d="M5482 5008 l3 -293 153 -3 152 -3 0 56 0 55 -90 0 -90 0 0 240 0 240
-65 0 -65 0 2 -292z"/>
<path d="M5990 5005 l0 -295 170 0 170 0 0 55 0 55 -110 0 -110 0 0 70 0 70
95 0 95 0 0 50 0 50 -95 0 -95 0 0 70 0 70 110 0 110 0 0 50 0 50 -170 0 -170
0 0 -295z"/>
<path d="M9030 5096 c0 -118 -4 -216 -11 -234 -17 -50 -62 -59 -141 -27 -13 5
-22 -3 -37 -34 -12 -22 -21 -45 -21 -50 0 -21 88 -43 159 -39 79 4 113 22 146
79 18 31 20 55 23 272 l3 237 -60 0 -61 0 0 -204z"/>
<path d="M10170 5005 l0 -297 153 4 c163 5 189 11 236 62 19 20 26 40 29 88 6
74 -13 117 -63 144 l-34 18 30 33 c53 61 33 170 -40 215 -32 20 -52 23 -173
26 l-138 4 0 -297z m250 175 c29 -29 26 -74 -7 -100 -21 -16 -38 -20 -77 -18
l-51 3 -3 68 -3 67 61 0 c47 0 64 -4 80 -20z m8 -221 c38 -13 57 -54 43 -92
-14 -37 -40 -47 -120 -47 l-71 0 0 68 c0 38 3 72 7 75 10 11 107 8 141 -4z"/>
<path d="M7929 5228 c-7 -13 -14 -63 -16 -113 l-3 -90 25 75 c29 86 35 141 18
147 -6 2 -17 -6 -24 -19z"/>
<path d="M7742 5138 c-7 -7 -12 -25 -12 -40 l0 -29 30 23 c33 24 40 58 12 58
-10 0 -23 -5 -30 -12z"/>
<path d="M7980 5132 c0 -17 38 -62 53 -62 11 0 8 39 -3 61 -14 25 -50 25 -50
1z"/>
<path d="M7640 5035 l-34 -35 29 -30 c16 -16 31 -30 34 -30 3 0 6 29 6 65 0
36 0 65 -1 65 0 0 -15 -16 -34 -35z"/>
<path d="M8092 5000 c0 -52 2 -59 17 -51 9 5 25 19 35 30 19 21 19 22 -9 51
-16 17 -32 30 -36 30 -4 0 -7 -27 -7 -60z"/>
<path d="M7828 4883 c-33 -109 -35 -136 -10 -131 25 5 43 72 40 153 l-3 70
-27 -92z"/>
<path d="M7730 4910 c0 -33 19 -60 40 -60 30 0 24 33 -10 58 l-30 23 0 -21z"/>
<path d="M8002 4907 c-28 -29 -29 -57 -2 -57 21 0 40 27 40 59 0 27 -11 26
-38 -2z"/>
</g>
</svg>
